<svg height="464pt" viewBox="-8 0 464 464" width="464pt" xmlns="http://www.w3.org/2000/svg"><path d="m448 176v256c0 17.671875-14.328125 32-32 32h-384c-17.671875 0-32-14.328125-32-32v-256zm0 0" fill="#5aaae7"/><path d="m96 376h-32c-4.417969 0-8 3.582031-8 8v32c0 4.417969 3.582031 8 8 8h32c4.417969 0 8-3.582031 8-8v-32c0-4.417969-3.582031-8-8-8zm0 0" fill="#ffd422"/><path d="m128 312c0 20.320312-19.441406 47.199219-33.519531 64-8.160157 9.679688-14.480469 16-14.480469 16s-6.320312-6.320312-14.480469-16c-14.078125-16.800781-33.519531-43.679688-33.519531-64 0-26.507812 21.492188-48 48-48s48 21.492188 48 48zm0 0" fill="#ff5023"/><path d="m416 96h-384c-17.671875 0-32 14.328125-32 32v48h448v-48c0-17.671875-14.328125-32-32-32zm0 0" fill="#ff5023"/><path d="m272 16v32h-96v-32c.027344-8.824219 7.175781-15.9726562 16-16h64c8.824219.0273438 15.972656 7.175781 16 16zm0 0" fill="#ee8700"/><path d="m312 48h-176c-8.824219.027344-15.972656 7.175781-16 16v48c.027344 8.824219 7.175781 15.972656 16 16h176c8.824219-.027344 15.972656-7.175781 16-16v-48c-.027344-8.824219-7.175781-15.972656-16-16zm0 0" fill="#ff9811"/><path d="m96 312c0 8.835938-7.164062 16-16 16s-16-7.164062-16-16 7.164062-16 16-16 16 7.164062 16 16zm0 0" fill="#ffd422"/><g fill="#ffb655"><path d="m352 376h32c4.417969 0 8 3.582031 8 8v32c0 4.417969-3.582031 8-8 8h-32c-4.417969 0-8-3.582031-8-8v-32c0-4.417969 3.582031-8 8-8zm0 0"/><path d="m256 376h32c4.417969 0 8 3.582031 8 8v32c0 4.417969-3.582031 8-8 8h-32c-4.417969 0-8-3.582031-8-8v-32c0-4.417969 3.582031-8 8-8zm0 0"/><path d="m160 376h32c4.417969 0 8 3.582031 8 8v32c0 4.417969-3.582031 8-8 8h-32c-4.417969 0-8-3.582031-8-8v-32c0-4.417969 3.582031-8 8-8zm0 0"/><path d="m160 296h32c4.417969 0 8 3.582031 8 8v32c0 4.417969-3.582031 8-8 8h-32c-4.417969 0-8-3.582031-8-8v-32c0-4.417969 3.582031-8 8-8zm0 0"/><path d="m256 296h32c4.417969 0 8 3.582031 8 8v32c0 4.417969-3.582031 8-8 8h-32c-4.417969 0-8-3.582031-8-8v-32c0-4.417969 3.582031-8 8-8zm0 0"/><path d="m352 296h32c4.417969 0 8 3.582031 8 8v32c0 4.417969-3.582031 8-8 8h-32c-4.417969 0-8-3.582031-8-8v-32c0-4.417969 3.582031-8 8-8zm0 0"/><path d="m352 216h32c4.417969 0 8 3.582031 8 8v32c0 4.417969-3.582031 8-8 8h-32c-4.417969 0-8-3.582031-8-8v-32c0-4.417969 3.582031-8 8-8zm0 0"/><path d="m256 216h32c4.417969 0 8 3.582031 8 8v32c0 4.417969-3.582031 8-8 8h-32c-4.417969 0-8-3.582031-8-8v-32c0-4.417969 3.582031-8 8-8zm0 0"/><path d="m160 216h32c4.417969 0 8 3.582031 8 8v32c0 4.417969-3.582031 8-8 8h-32c-4.417969 0-8-3.582031-8-8v-32c0-4.417969 3.582031-8 8-8zm0 0"/><path d="m104 224v32c0 4.417969-3.582031 8-8 8h-32c-4.417969 0-8-3.582031-8-8v-32c0-4.417969 3.582031-8 8-8h32c4.417969 0 8 3.582031 8 8zm0 0"/></g></svg>